# xmcd CD database file
# Copyright (C) 1993-1998 Ti Kan
#
# Track frame offsets:
#	150
#	16095
#	32535
#	43177
#	61360
#	86732
#	101330
#	117647
#	133892
#	150187
#	169357
#	181075
#	198180
#	216537
#	240640
#	258375
#	278332
#	292815
#	308822
#
# Disc length: 4349 seconds
#
# Revision: 1
# Processed by: cddbd v1.4b41PL1 Copyright (c) Steve Scherf et al.
# Submitted via: CDValet v3.31 - Copyright (c) 1997 Greg Leichner
#
DISCID=0310fb13
DTITLE=Gove Scrivenor - Solid Gove
DYEAR=1900
DGENRE=
TTITLE0=Good Time Lady
TTITLE1=Sugar Babe
TTITLE2=Pigeon River Breakdown
TTITLE3=Cocaine Blues
TTITLE4=If Your Man Gets Busted
TTITLE5=Walkin' My Blues Away
TTITLE6=Make My Love Come Rollin' Down
TTITLE7=Minuet for the Backroads
TTITLE8=Black Cat Bone
TTITLE9=Going to the Country
TTITLE10=Jesu, Joy of Man's Desiring
TTITLE11=Rainbow Willie
TTITLE12=Reason to Believe
TTITLE13=Before Believing
TTITLE14=Everybody's Dancing
TTITLE15=Two River's in Montana
TTITLE16=Everybody's Dancing
TTITLE17=All I Want to Do
TTITLE18=I'll Fly Away
EXTD=
EXTT0=
EXTT1=
EXTT2=
EXTT3=
EXTT4=
EXTT5=
EXTT6=
EXTT7=
EXTT8=
EXTT9=
EXTT10=
EXTT11=
EXTT12=
EXTT13=
EXTT14=
EXTT15=
EXTT16=
EXTT17=
EXTT18=
PLAYORDER=
